<svg width="32" height="32" viewBox="0 0 32 32" xmlns="http://www.w3.org/2000/svg">
  <!-- Background circle -->
  <circle cx="16" cy="16" r="16" fill="#1DB954"/>
  
  <!-- Running figure -->
  <g fill="white">
    <!-- Head -->
    <circle cx="12" cy="8" r="2.5"/>
    
    <!-- Body -->
    <ellipse cx="12" cy="15" rx="1.5" ry="4"/>
    
    <!-- Arms -->
    <ellipse cx="9" cy="13" rx="0.8" ry="2.5" transform="rotate(-20 9 13)"/>
    <ellipse cx="15" cy="13" rx="0.8" ry="2.5" transform="rotate(20 15 13)"/>
    
    <!-- Legs -->
    <ellipse cx="10" cy="20" rx="0.8" ry="3" transform="rotate(-15 10 20)"/>
    <ellipse cx="14" cy="20" rx="0.8" ry="3" transform="rotate(25 14 20)"/>
  </g>
  
  <!-- Speed lines -->
  <g stroke="white" stroke-width="1.5" fill="none" opacity="0.7">
    <line x1="20" y1="10" x2="24" y2="8"/>
    <line x1="21" y1="14" x2="26" y2="13"/>
    <line x1="20" y1="18" x2="25" y2="18"/>
  </g>
  
  <!-- Music note -->
  <g fill="white" opacity="0.8">
    <circle cx="24" cy="24" r="1.5"/>
    <rect x="23.5" y="20" width="1" height="4"/>
    <path d="M24.5 20 Q26 19 26 21" stroke="white" stroke-width="0.8" fill="none"/>
  </g>
</svg>
